<svg width="368" height="368" viewBox="0 0 368 368" fill="none" xmlns="http://www.w3.org/2000/svg">
<rect width="368" height="368" rx="46" fill="#C7D9EC"/>
<path d="M175.343 118.33C173.037 118.097 170.759 118.934 169.119 120.574L149.411 140.282C172.865 137.675 223.526 187.018 249.739 189.681C252.045 189.915 254.323 189.077 255.963 187.437L275.671 167.729C252.223 170.33 201.556 120.994 175.343 118.33Z" fill="#1A406A"/>
<path d="M114.958 178.716C112.652 178.483 110.374 179.32 108.734 180.96L89.0263 200.668C112.48 198.06 163.141 247.404 189.354 250.067C191.66 250.3 193.938 249.463 195.578 247.823L215.286 228.115C191.839 230.716 141.171 181.379 114.958 178.716Z" fill="#1A406A"/>
<path d="M212.486 80.8571C213.557 96.4748 229.455 122.241 241.863 145.613C254.846 153.737 267.829 160.792 274.82 160.015L278.313 159.624C275.273 135.161 240.813 88.5694 235.549 62.6917C234.931 59.6449 231.191 58.499 228.996 60.6949L214.75 74.9403C213.186 76.5049 212.335 78.6476 212.486 80.8571Z" fill="#1A406A"/>
<path d="M214.436 220.404L217.839 220.019C215.63 205.898 201.13 185.318 188.422 165.693C173.813 156.299 158.208 147.117 150.282 148.002L146.879 148.387C149.088 162.508 163.588 183.088 176.296 202.713C190.905 212.107 206.51 221.289 214.436 220.404Z" fill="#1A406A"/>
<path d="M152.213 287.538C151.142 271.92 135.244 246.154 122.836 222.782C109.853 214.658 96.8703 207.604 89.879 208.38L86.3862 208.771C89.4191 233.241 123.886 279.826 129.136 305.703C129.754 308.75 133.494 309.896 135.689 307.7L149.935 293.455C151.499 291.89 152.35 289.749 152.199 287.54L152.213 287.538Z" fill="#1A406A"/>
</svg>
